<svg version="1.1" id="Layer_1" xmlns="http://www.w3.org/2000/svg" xmlns:xlink="http://www.w3.org/1999/xlink" x="0px" y="0px"
	 width="100%" viewBox="0 0 1024 1024" enable-background="new 0 0 1024 1024" xml:space="preserve">
<path fill="#040407" opacity="1.000000" stroke="none" 
	d="
M567.000000,1025.000000 
	C378.000000,1025.000000 189.500000,1025.000000 1.000000,1025.000000 
	C1.000000,683.666687 1.000000,342.333344 1.000000,1.000000 
	C342.333344,1.000000 683.666687,1.000000 1025.000000,1.000000 
	C1025.000000,342.333344 1025.000000,683.666687 1025.000000,1025.000000 
	C872.500000,1025.000000 720.000000,1025.000000 567.000000,1025.000000 
M827.762817,497.794281 
	C827.762817,497.794281 827.471985,497.918915 826.801270,497.424042 
	C824.694397,495.877167 822.587524,494.330322 820.509888,492.804901 
	C816.353394,502.663361 815.916260,504.780853 817.046692,509.960358 
	C816.585205,510.636200 816.123718,511.312042 814.934631,511.989044 
	C810.438965,512.917236 810.117065,513.718506 812.917419,517.634338 
	C812.354614,518.785706 811.791748,519.937012 810.427612,521.044189 
	C809.602417,521.093201 808.711914,520.956909 807.962402,521.220764 
	C802.370422,523.189575 802.750244,523.050964 802.767395,517.357239 
	C802.785828,511.225037 801.553406,505.089020 800.813232,498.213501 
	C801.255920,496.810242 801.698547,495.406982 802.835327,493.902924 
	C807.341614,489.906769 808.027771,486.752350 804.874207,483.487701 
	C804.839661,483.316925 804.805115,483.146149 805.080933,482.174225 
	C804.616333,480.065521 804.842346,477.298431 803.568054,475.961487 
	C797.925476,470.041595 791.172729,465.720978 782.393433,463.589172 
	C761.346863,458.114594 742.002014,461.415344 724.195435,474.815704 
	C719.731445,479.524414 715.267456,484.233124 710.207642,489.234680 
	C702.978271,499.441010 697.382568,510.333344 695.758545,523.561096 
	C695.686157,524.366577 695.613770,525.172058 695.213318,526.732971 
	C695.230774,527.823730 695.248291,528.914429 695.092224,530.878357 
	C696.428894,536.911011 697.765564,542.943665 699.133179,549.672852 
	C707.494263,564.496704 722.311523,570.248596 738.019531,564.856934 
	C746.706482,561.875366 753.423828,556.077515 760.292664,550.217529 
	C760.438782,550.301941 760.584961,550.386292 760.708374,551.269531 
	C758.155151,559.157898 756.258484,567.338379 752.906494,574.871338 
	C746.705750,588.806519 734.427063,595.782959 721.432617,593.059937 
	C717.201843,592.173462 713.237854,589.635498 709.375122,587.456848 
	C703.006348,583.864746 696.848022,584.646790 693.241211,590.482910 
	C691.508911,593.286011 690.932190,596.803284 688.984985,599.998169 
	C675.828552,599.332214 662.676086,598.569519 649.514526,598.029053 
	C637.662720,597.542297 625.792969,597.468201 613.945740,596.905029 
	C599.630432,596.224487 585.336121,594.655212 571.022339,594.512207 
	C556.021973,594.362244 541.011841,595.536377 526.001282,595.967468 
	C510.443359,596.414307 494.877808,596.594116 479.319458,597.029602 
	C471.586884,597.246033 463.853790,597.643738 456.137299,598.190674 
	C444.426697,599.020569 432.734619,600.111572 421.024048,600.942017 
	C418.928406,601.090637 416.729980,600.093384 414.666718,600.344849 
	C402.993469,601.767578 391.386139,603.894287 379.680328,604.841858 
	C367.740967,605.808350 356.079620,609.826172 343.877563,608.096680 
	C342.400452,607.887268 340.770111,609.078186 339.165741,609.383850 
	C335.336884,610.113281 331.485474,610.729675 327.633728,611.331177 
	C326.363129,611.529602 325.040802,611.423279 323.781464,611.662842 
	C319.976227,612.386719 316.221863,613.478271 312.389130,613.933167 
	C307.132721,614.557068 301.814880,614.643188 296.537720,615.118958 
	C292.004303,615.527771 287.233948,615.416870 283.030060,616.870667 
	C276.970734,618.966187 271.570618,623.350708 264.551727,620.183105 
	C263.728302,619.811523 262.369019,620.633850 261.256439,620.895447 
	C251.693848,623.143372 242.218124,626.007202 232.531174,627.375854 
	C227.681091,628.061157 225.411285,629.052185 225.658279,634.539856 
	C225.094635,635.336792 224.531006,636.133667 223.613663,637.629333 
	C223.550430,638.137634 223.487198,638.645935 223.136627,639.747864 
	C224.547043,646.381287 224.547058,646.381409 231.280716,645.392517 
	C231.769348,645.320740 232.255249,645.210571 232.746353,645.178650 
	C244.743576,644.397705 256.748596,643.722107 268.737183,642.826843 
	C284.658691,641.637939 300.563110,640.221313 316.483673,639.018860 
	C323.593719,638.481812 330.745422,638.449524 337.842773,637.800659 
	C353.977234,636.325623 370.071777,634.392761 386.216888,633.062683 
	C399.027954,632.007324 411.903931,631.755615 424.724426,630.792542 
	C432.875427,630.180359 440.972839,628.875061 449.105225,627.980408 
	C451.176117,627.752563 453.290070,627.942200 455.382141,627.874878 
	C459.687378,627.736328 463.996674,627.641235 468.294434,627.371094 
	C477.204865,626.811157 486.101044,625.973816 495.017609,625.575806 
	C504.528320,625.151306 514.056824,625.136414 523.575256,624.862366 
	C525.702393,624.801086 527.822937,624.179382 529.941162,624.208618 
	C534.984497,624.278015 540.037231,624.911255 545.063354,624.719482 
	C554.076538,624.375549 563.073059,623.091370 572.076233,623.094849 
	C592.198608,623.102661 612.321411,623.625000 632.442627,624.013245 
	C639.962585,624.158325 642.271240,627.645569 641.905212,635.328491 
	C641.600220,641.729492 640.914978,648.702454 647.554626,653.220947 
	C648.662048,653.974670 649.554565,655.636047 649.769348,657.000305 
	C650.453430,661.346375 653.246521,663.446594 657.142151,663.953247 
	C664.190063,664.869873 671.277893,665.571960 678.370667,666.030212 
	C688.318970,666.672852 698.009338,666.235657 704.588623,656.948853 
	C705.056519,656.288513 705.839111,655.858643 706.437012,655.281738 
	C713.990662,647.992737 721.725769,640.878113 729.005981,633.325073 
	C732.624451,629.571106 734.050110,624.660034 733.417175,619.056641 
	C753.043884,615.245667 766.925476,603.709106 775.047974,585.938232 
	C779.841125,575.451477 782.556396,564.015076 786.993958,553.005676 
	C789.196899,552.824036 793.173157,552.938538 791.492981,549.881470 
	C788.330017,544.126526 793.248108,542.948853 794.859924,539.879578 
	C796.976013,541.157166 798.475586,542.822632 799.969666,542.817749 
	C803.963074,542.804749 805.015991,544.535767 805.188660,548.246765 
	C805.302002,550.680603 806.061035,554.017029 810.809631,552.103760 
	C817.734192,563.188782 827.619385,568.308533 840.686462,566.616028 
	C848.992676,565.540161 856.166382,561.830811 862.384277,556.282593 
	C865.036072,553.916382 867.561096,551.408081 870.623535,548.510498 
	C870.796997,550.372070 870.851257,551.487732 871.011414,552.588013 
	C872.342285,561.731934 879.336121,567.191406 888.598511,566.437439 
	C892.156738,566.147827 893.879211,564.791016 893.800903,560.796265 
	C893.697266,555.510498 893.996948,550.151428 894.805664,544.929565 
	C895.843384,538.229431 897.559082,531.634338 899.382507,524.388367 
	C901.060181,517.313049 903.136169,510.298767 904.234131,503.134644 
	C904.724304,499.936035 905.974487,497.409607 907.255676,494.633331 
	C912.011292,484.328217 910.255493,477.301300 901.530701,469.837189 
	C896.008850,465.113190 889.431458,463.021210 882.430298,461.949677 
	C869.254272,459.933014 856.580811,462.160797 843.775452,465.859802 
	C835.288025,464.805664 827.628479,467.434479 827.883728,476.769318 
	C827.246704,478.845978 826.609741,480.922668 825.176208,483.004333 
	C824.147888,483.454773 823.119629,483.905243 822.091309,484.355713 
	C822.225708,484.818573 822.360107,485.281403 822.494507,485.744263 
	C823.887878,485.744263 825.281250,485.744263 827.020020,486.284393 
	C829.085938,488.638611 831.151855,490.992828 833.078369,494.135742 
	C833.051392,494.401398 833.024475,494.667023 832.460693,495.303375 
	C831.641052,495.537079 830.821350,495.770782 829.532043,495.481415 
	C828.951721,495.477966 828.371338,495.474518 827.791016,495.471039 
	C827.837646,496.156097 827.884277,496.841125 827.762817,497.794281 
M134.829056,448.088593 
	C134.329361,449.836365 132.888397,452.253601 133.546021,453.178253 
	C134.586304,454.640930 136.951645,455.496246 138.902740,455.899200 
	C141.997864,456.538391 145.209686,456.654999 148.380585,456.865204 
	C149.788330,456.958557 151.216675,456.740845 153.006775,456.644348 
	C153.006775,454.504669 153.006775,452.864502 153.637848,450.905457 
	C156.929398,447.535980 160.969894,444.615601 163.326477,440.685486 
	C166.400803,435.558350 165.899353,429.803864 162.052170,424.817719 
	C158.156464,419.768585 152.894302,418.679321 146.906982,419.815857 
	C136.339096,421.821899 126.658325,436.535187 134.829056,448.088593 
M134.939911,537.198792 
	C136.637894,531.132812 138.335861,525.066895 140.821609,518.969604 
	C144.269928,517.338684 143.621384,515.187744 141.661362,512.056396 
	C144.514069,501.372803 147.366776,490.689178 150.724182,479.941895 
	C150.752960,479.290222 150.781754,478.638580 150.476593,477.189972 
	C150.066910,468.038818 145.904175,463.457031 136.007019,460.609619 
	C135.446350,459.802246 134.885681,458.994873 134.324997,458.187531 
	C133.876617,459.280029 133.428238,460.372559 132.247650,461.765930 
	C127.921562,461.539093 127.816032,465.044342 127.083374,467.799408 
	C121.158806,490.077942 115.201332,512.348755 109.495232,534.683533 
	C108.150742,539.946167 107.038956,545.440735 107.023178,550.832092 
	C106.996078,560.094971 115.558121,567.316223 124.644386,566.527161 
	C127.803802,566.252869 129.671844,564.958435 130.174667,561.384827 
	C131.048096,555.177185 132.506165,549.051880 134.453461,542.890015 
	C135.509674,541.676941 136.565887,540.463806 137.622086,539.250671 
	C136.741882,538.832275 135.861664,538.413818 134.939911,537.198792 
M676.802124,535.523743 
	C681.613342,517.242981 686.565308,498.997650 691.179932,480.667419 
	C693.707031,470.629425 686.871887,462.131775 676.510742,461.534973 
	C671.872986,461.267853 669.473633,462.743683 668.075562,467.605804 
	C663.321106,484.140198 657.980225,500.505981 652.315552,517.329895 
	C650.949768,519.799866 649.727356,522.363159 648.191040,524.722046 
	C643.820190,531.432861 639.390137,538.196777 631.809326,541.756104 
	C623.727051,545.550842 616.411804,541.085266 616.062988,532.175842 
	C615.940308,529.041687 616.008972,525.773193 616.752258,522.753723 
	C620.168335,508.878174 623.897766,495.080231 627.428833,481.232544 
	C630.289856,470.012665 623.129761,461.161194 611.707947,461.433441 
	C607.800537,461.526581 605.854370,462.981262 604.856201,466.957336 
	C600.808838,483.080811 596.028015,499.028229 592.303589,515.221313 
	C590.349609,523.716919 588.837891,532.638306 589.215759,541.276001 
	C589.918274,557.337280 604.121521,568.657776 619.570496,566.710632 
	C628.028625,565.644653 635.567810,562.357117 641.839539,556.446350 
	C644.407837,554.025879 646.942017,551.569275 649.755615,548.876587 
	C651.398987,561.032227 658.079468,567.252441 668.005554,566.374084 
	C670.802124,566.126587 672.946838,565.521851 673.272644,561.806763 
	C674.025879,553.215881 675.303162,544.670959 676.802124,535.523743 
M153.323257,539.115662 
	C151.372177,540.742188 151.914322,541.602417 154.590042,542.576050 
	C155.643524,551.828430 159.732880,559.232544 168.232666,563.485168 
	C171.570389,565.155151 175.396576,565.848816 179.088287,567.716370 
	C180.876511,568.715515 182.952774,570.848572 184.394211,570.482361 
	C187.599380,569.668274 192.718842,571.111084 193.662964,564.945007 
	C196.705917,563.602722 199.748856,562.260498 203.609329,560.966797 
	C205.040924,560.659119 206.487061,560.046387 207.900772,560.113831 
	C210.151672,560.221130 212.686768,560.227783 214.558121,561.261230 
	C218.971344,563.698364 222.760422,567.577393 227.388641,569.208374 
	C230.699020,570.374939 234.978699,568.957092 238.772385,568.355286 
	C239.199463,568.287537 239.278610,566.026367 239.795105,563.944763 
	C239.928497,561.298218 240.061890,558.651611 240.992676,555.998352 
	C241.986084,554.906494 242.979507,553.814697 243.972946,552.722900 
	C242.788773,551.772522 241.604584,550.822083 240.368332,549.013733 
	C241.161072,545.309937 241.953812,541.606201 243.499374,537.885437 
	C244.262238,537.202332 245.025101,536.519226 245.787979,535.836121 
	C245.066269,535.188599 244.344559,534.541016 243.669281,533.123291 
	C244.163284,531.416870 244.657288,529.710449 245.898926,528.002319 
	C247.960999,527.188049 250.023056,526.373779 252.085114,525.559509 
	C254.528198,526.484558 256.894379,526.062500 259.227631,526.199707 
	C260.684143,526.285461 262.091034,527.215088 263.560455,528.508057 
	C261.699524,537.006470 259.838562,545.504883 257.648346,554.280396 
	C257.933807,554.471313 258.219269,554.662231 258.831970,555.318298 
	C258.895782,555.876343 258.959595,556.434387 258.404602,557.317139 
	C258.256836,558.446899 257.652191,560.317322 258.049957,560.562683 
	C259.095734,561.207764 260.577759,561.145630 262.401459,561.753479 
	C266.128326,563.269165 269.741974,565.275696 273.612488,566.168762 
	C277.869995,567.151001 280.302734,564.884827 281.001648,560.348328 
	C281.682098,555.931763 283.002625,551.610168 284.104095,547.262634 
	C289.112244,527.495911 295.247681,508.191895 308.325287,491.997803 
	C310.465576,489.347504 313.245941,486.947235 316.209808,485.287109 
	C321.596619,482.269775 327.004700,484.476288 328.033478,490.567841 
	C328.836151,495.320679 328.556946,500.563232 327.439697,505.275482 
	C324.143036,519.179749 320.055084,532.894104 316.540283,546.749573 
	C313.860291,557.314209 320.518250,566.053955 331.114166,566.451416 
	C335.149689,566.602722 337.865204,565.482788 338.303802,560.861084 
	C338.552551,558.240173 339.498901,555.685120 340.136169,553.101624 
	C344.526031,535.304016 349.642578,517.709778 359.141571,501.887848 
	C362.585022,496.152222 367.025238,490.597015 372.190704,486.418213 
	C378.761902,481.102234 385.706879,484.780701 385.972565,493.243500 
	C386.121704,497.993988 385.493866,502.902527 384.368164,507.533752 
	C381.267090,520.291931 377.461151,532.880188 374.423279,545.651978 
	C371.609467,557.481873 380.090820,567.270386 391.922333,566.493713 
	C394.921265,566.296814 396.647644,565.268738 397.180511,561.824158 
	C398.347473,554.280457 399.835693,546.764709 401.636841,539.345459 
	C405.124420,524.979065 409.532715,510.808350 412.388885,496.325684 
	C414.618927,485.017853 413.401917,473.710144 402.909454,466.180817 
	C391.964752,458.326935 380.420227,459.978333 369.524445,466.193451 
	C363.684052,469.524872 358.689606,474.339325 353.363739,478.445740 
	C347.210938,465.394348 339.835907,460.231720 328.864227,461.323853 
	C317.067963,462.498108 308.520844,469.170105 300.785706,478.558990 
	C300.902435,476.579376 301.004913,475.588745 301.012207,474.597412 
	C301.060211,468.066010 296.293152,462.888031 289.337372,461.890839 
	C282.361725,460.890839 281.492340,461.595734 278.943329,470.298370 
	C278.850952,470.613922 278.690002,470.909363 277.869171,470.920929 
	C276.897064,469.759216 275.924957,468.597504 274.584015,466.995026 
	C274.397095,469.485901 273.878296,471.526276 274.249237,473.389526 
	C274.452850,474.412354 276.156250,475.136566 277.203949,476.782227 
	C276.209595,479.094666 274.874908,481.325317 274.295166,483.737396 
	C273.246643,488.099915 272.648712,492.570740 271.127716,496.998932 
	C269.817169,497.462708 268.506622,497.926483 267.196106,498.390228 
	C267.304169,498.772827 267.412262,499.155426 267.520355,499.537994 
	C268.758514,499.382080 269.996704,499.226135 271.223755,499.877747 
	C269.975922,504.307068 268.728088,508.736389 266.668365,513.075500 
	C265.725769,512.845764 264.618530,512.857422 263.868378,512.345581 
	C260.076050,509.758514 257.430237,510.013702 254.790421,514.321350 
	C253.780426,515.969421 250.375839,516.150024 247.990677,516.223938 
	C249.015579,512.816528 250.040497,509.409149 251.880157,506.000885 
	C253.418167,505.585754 255.357880,505.617828 256.415466,504.667847 
	C259.106781,502.250366 258.558502,491.026733 255.823486,487.087677 
	C255.185379,483.460785 254.547287,479.833923 254.222549,475.482880 
	C253.867706,473.058838 254.301315,469.260010 252.988205,468.506866 
	C250.519913,467.091309 247.042831,467.434631 243.264282,466.938873 
	C237.767059,465.222656 232.374542,462.929871 226.751129,461.908600 
	C214.513458,459.686066 202.702316,462.629150 190.596085,465.545471 
	C187.670334,465.400970 184.720947,465.213745 183.652832,469.710144 
	C171.340652,475.701263 169.183578,482.963593 177.059341,492.401703 
	C176.385178,493.967010 175.711014,495.532318 174.748383,497.636841 
	C173.602997,498.465454 172.457611,499.294037 170.501236,500.073334 
	C169.703476,501.138580 168.905701,502.203796 167.901398,503.902832 
	C159.277222,514.021423 154.471481,525.652771 153.323257,539.115662 
M554.159729,579.393738 
	C556.116150,580.640076 557.978760,582.701355 560.051270,582.940125 
	C563.093689,583.290588 567.085938,583.332397 569.179565,581.648376 
	C571.094849,580.107788 571.409302,576.136047 571.678589,573.167480 
	C571.823303,571.571045 570.559570,569.732605 569.643372,568.172424 
	C562.906860,556.700745 556.068909,545.288574 549.320557,533.823792 
	C544.024353,524.826111 538.810730,515.779785 533.833008,507.223572 
	C544.242249,503.019531 554.343079,499.592102 563.856506,494.958588 
	C582.206970,486.021027 596.671082,472.780487 604.764587,453.643921 
	C614.790161,429.939270 604.414001,408.840912 579.379150,402.987732 
	C570.588562,400.932495 561.239807,400.488312 552.161499,400.597626 
	C531.896667,400.841614 512.207031,405.379089 492.708069,410.489166 
	C482.105286,413.267822 471.657837,416.675995 461.236420,420.093292 
	C456.405151,421.677460 454.147034,425.419067 454.746338,430.604980 
	C455.276855,435.195740 459.025146,439.428619 463.802734,439.951508 
	C467.022247,440.303833 470.454407,440.002625 473.621704,439.264984 
	C479.606689,437.871124 485.454315,435.896759 491.392792,434.288239 
	C493.006592,433.851166 494.741119,433.859772 496.935913,433.603638 
	C496.364960,436.437439 496.079041,438.412781 495.564392,440.326599 
	C488.523102,466.511200 481.457947,492.689423 474.380798,518.864380 
	C471.992432,527.697815 469.398621,536.478943 467.182831,545.354919 
	C465.015503,554.036987 468.154877,561.142944 475.356659,564.827881 
	C482.915161,568.695374 488.206329,566.224487 490.320496,558.167297 
	C494.408173,542.588989 498.685211,527.060242 502.950348,511.264404 
	C503.821869,511.855347 504.359985,512.038757 504.602936,512.413574 
	C506.591309,515.481079 508.538025,518.575989 510.472717,521.677917 
	C523.167175,542.031128 536.127563,562.182861 554.159729,579.393738 
M445.656036,533.570068 
	C431.176636,527.986633 416.992950,538.705933 418.980042,553.802795 
	C419.733978,559.530762 422.903534,563.675720 428.293549,565.753052 
	C436.615967,568.960571 446.308319,564.838013 451.119110,556.287842 
	C455.814026,547.943665 454.134979,540.073547 445.656036,533.570068 
z"/>
<path fill="#9B64F0" opacity="1.000000" stroke="none" 
	d="
M553.893921,579.152832 
	C536.127563,562.182861 523.167175,542.031128 510.472717,521.677917 
	C508.538025,518.575989 506.591309,515.481079 504.602936,512.413574 
	C504.359985,512.038757 503.821869,511.855347 502.950348,511.264404 
	C498.685211,527.060242 494.408173,542.588989 490.320496,558.167297 
	C488.206329,566.224487 482.915161,568.695374 475.356659,564.827881 
	C468.154877,561.142944 465.015503,554.036987 467.182831,545.354919 
	C469.398621,536.478943 471.992432,527.697815 474.380798,518.864380 
	C481.457947,492.689423 488.523102,466.511200 495.564392,440.326599 
	C496.079041,438.412781 496.364960,436.437439 496.935913,433.603638 
	C494.741119,433.859772 493.006592,433.851166 491.392792,434.288239 
	C485.454315,435.896759 479.606689,437.871124 473.621704,439.264984 
	C470.454407,440.002625 467.022247,440.303833 463.802734,439.951508 
	C459.025146,439.428619 455.276855,435.195740 454.746338,430.604980 
	C454.147034,425.419067 456.405151,421.677460 461.236420,420.093292 
	C471.657837,416.675995 482.105286,413.267822 492.708069,410.489166 
	C512.207031,405.379089 531.896667,400.841614 552.161499,400.597626 
	C561.239807,400.488312 570.588562,400.932495 579.379150,402.987732 
	C604.414001,408.840912 614.790161,429.939270 604.764587,453.643921 
	C596.671082,472.780487 582.206970,486.021027 563.856506,494.958588 
	C554.343079,499.592102 544.242249,503.019531 533.833008,507.223572 
	C538.810730,515.779785 544.024353,524.826111 549.320557,533.823792 
	C556.068909,545.288574 562.906860,556.700745 569.643372,568.172424 
	C570.559570,569.732605 571.823303,571.571045 571.678589,573.167480 
	C571.409302,576.136047 571.094849,580.107788 569.179565,581.648376 
	C567.085938,583.332397 563.093689,583.290588 560.051270,582.940125 
	C557.978760,582.701355 556.116150,580.640076 553.893921,579.152832 
M515.254761,486.932373 
	C528.096191,484.614807 540.499695,480.964905 551.909851,474.480103 
	C562.624207,468.390778 572.003296,460.859009 577.870667,449.658997 
	C584.128418,437.713898 580.092468,428.334534 567.024353,425.800018 
	C561.373413,424.704041 555.410339,424.412964 549.660889,424.806152 
	C539.476257,425.502594 529.346497,427.001221 518.600708,428.232086 
	C523.657776,435.974030 523.825562,437.169373 521.677673,444.723572 
	C518.404175,456.236725 515.146545,467.754364 511.895416,479.273865 
	C511.197479,481.746826 510.555756,484.235657 509.752258,487.222137 
	C511.788635,487.124451 513.085022,487.062286 515.254761,486.932373 
z"/>
<path fill="#FAFAFB" opacity="1.000000" stroke="none" 
	d="
M257.977600,554.003296 
	C259.838562,545.504883 261.699524,537.006470 263.732147,527.798950 
	C265.096008,522.448486 266.288147,517.807129 267.480286,513.165710 
	C268.728088,508.736389 269.975922,504.307068 271.454041,499.288757 
	C271.743744,498.131927 271.803192,497.564148 271.862640,496.996338 
	C272.648712,492.570740 273.246643,488.099915 274.295166,483.737396 
	C274.874908,481.325317 276.209595,479.094666 277.443359,476.125366 
	C277.975525,474.050385 278.268250,472.632294 278.561035,471.214172 
	C278.690002,470.909363 278.850952,470.613922 278.943329,470.298370 
	C281.492340,461.595734 282.361725,460.890839 289.337372,461.890839 
	C296.293152,462.888031 301.060211,468.066010 301.012207,474.597412 
	C301.004913,475.588745 300.902435,476.579376 300.785706,478.558990 
	C308.520844,469.170105 317.067963,462.498108 328.864227,461.323853 
	C339.835907,460.231720 347.210938,465.394348 353.363739,478.445740 
	C358.689606,474.339325 363.684052,469.524872 369.524445,466.193451 
	C380.420227,459.978333 391.964752,458.326935 402.909454,466.180817 
	C413.401917,473.710144 414.618927,485.017853 412.388885,496.325684 
	C409.532715,510.808350 405.124420,524.979065 401.636841,539.345459 
	C399.835693,546.764709 398.347473,554.280457 397.180511,561.824158 
	C396.647644,565.268738 394.921265,566.296814 391.922333,566.493713 
	C380.090820,567.270386 371.609467,557.481873 374.423279,545.651978 
	C377.461151,532.880188 381.267090,520.291931 384.368164,507.533752 
	C385.493866,502.902527 386.121704,497.993988 385.972565,493.243500 
	C385.706879,484.780701 378.761902,481.102234 372.190704,486.418213 
	C367.025238,490.597015 362.585022,496.152222 359.141571,501.887848 
	C349.642578,517.709778 344.526031,535.304016 340.136169,553.101624 
	C339.498901,555.685120 338.552551,558.240173 338.303802,560.861084 
	C337.865204,565.482788 335.149689,566.602722 331.114166,566.451416 
	C320.518250,566.053955 313.860291,557.314209 316.540283,546.749573 
	C320.055084,532.894104 324.143036,519.179749 327.439697,505.275482 
	C328.556946,500.563232 328.836151,495.320679 328.033478,490.567841 
	C327.004700,484.476288 321.596619,482.269775 316.209808,485.287109 
	C313.245941,486.947235 310.465576,489.347504 308.325287,491.997803 
	C295.247681,508.191895 289.112244,527.495911 284.104095,547.262634 
	C283.002625,551.610168 281.682098,555.931763 281.001648,560.348328 
	C280.302734,564.884827 277.869995,567.151001 273.612488,566.168762 
	C269.741974,565.275696 266.128326,563.269165 262.022827,561.253845 
	C260.770630,559.500305 259.897034,558.246338 259.023407,556.992432 
	C258.959595,556.434387 258.895782,555.876343 258.660919,554.796143 
	C258.319122,554.183777 258.148346,554.093567 257.977600,554.003296 
z"/>
<path fill="#FAFAFB" opacity="1.000000" stroke="none" 
	d="
M191.034348,466.096130 
	C202.702316,462.629150 214.513458,459.686066 226.751129,461.908600 
	C232.374542,462.929871 237.767059,465.222656 243.785339,467.287018 
	C247.507309,470.492462 250.708237,473.349731 253.909180,476.207031 
	C254.547287,479.833923 255.185379,483.460785 255.628723,487.817200 
	C253.977768,494.365082 252.521591,500.183411 251.065414,506.001740 
	C250.040497,509.409149 249.015579,512.816528 247.834229,516.936890 
	C246.835632,521.101257 245.993484,524.552612 245.151306,528.004028 
	C244.657288,529.710449 244.163284,531.416870 243.432327,533.784790 
	C243.045776,535.598267 242.896164,536.750366 242.746552,537.902405 
	C241.953812,541.606201 241.161072,545.309937 240.258057,549.800537 
	C240.163635,552.393311 240.179474,554.199158 240.195282,556.005066 
	C240.061890,558.651611 239.928497,561.298218 239.316498,564.571655 
	C227.367981,569.483337 219.128571,563.556763 216.636887,549.007690 
	C211.957443,553.033325 207.374619,556.975769 202.791794,560.918274 
	C199.748856,562.260498 196.705917,563.602722 192.948517,565.117981 
	C187.822800,565.856384 183.411560,566.421753 179.000305,566.987183 
	C175.396576,565.848816 171.570389,565.155151 168.232666,563.485168 
	C159.732880,559.232544 155.643524,551.828430 154.481308,541.889404 
	C154.247269,540.468445 154.121964,539.734192 153.996658,538.999939 
	C154.471481,525.652771 159.277222,514.021423 168.309586,503.464996 
	C169.582596,502.058990 170.447418,501.090820 171.312256,500.122650 
	C172.457611,499.294037 173.602997,498.465454 175.270599,497.294434 
	C180.937881,496.278564 186.138107,494.814728 191.211456,495.168823 
	C195.683914,495.480957 196.842041,499.492950 194.403366,503.341583 
	C192.715637,506.005127 190.387863,508.361450 189.176666,511.208435 
	C186.541595,517.402283 183.363876,523.658020 182.365952,530.187683 
	C180.832748,540.220032 189.502350,546.435608 198.745056,542.124451 
	C203.380066,539.962463 207.683044,536.288208 211.053909,532.367371 
	C220.955841,520.850037 225.943146,507.002899 228.187500,492.129547 
	C229.277603,484.905518 227.024109,482.403107 219.679184,482.063477 
	C209.526855,481.594086 200.344315,484.521484 191.863922,489.928131 
	C187.223480,492.886627 182.525040,495.173187 177.141159,491.633362 
	C169.183578,482.963593 171.340652,475.701263 184.215149,469.408386 
	C186.863098,468.103149 188.948730,467.099640 191.034348,466.096130 
z"/>
<path fill="#9A63ED" opacity="1.000000" stroke="none" 
	d="
M223.423981,639.154236 
	C223.487198,638.645935 223.550430,638.137634 224.175537,637.240601 
	C226.655106,636.302551 228.540451,635.559204 230.495407,635.233093 
	C259.707489,630.360901 288.879547,625.218506 318.158966,620.786682 
	C367.083557,613.381287 416.336334,609.011780 465.716644,606.099182 
	C519.971497,602.899231 574.277954,602.213623 628.534363,605.303589 
	C652.082703,606.644653 675.502258,610.248108 699.365479,612.794739 
	C706.578308,615.131958 713.405945,617.498291 720.398926,620.156250 
	C726.919556,625.285828 726.832764,629.104065 720.237488,633.525696 
	C719.276611,634.169861 718.265442,634.775574 717.204834,635.228760 
	C702.330994,641.582764 686.789001,644.705688 670.632263,644.217529 
	C668.426514,644.150879 666.281250,642.081970 664.107971,640.940186 
	C665.736694,639.302856 667.365417,637.665527 669.429932,636.047058 
	C679.747314,634.431519 689.628845,632.797241 699.767212,631.193726 
	C700.341064,631.096313 700.658203,630.968018 701.344238,630.864258 
	C704.603699,629.511292 707.494263,628.133728 710.384827,626.756226 
	C710.295715,626.160645 710.206604,625.565002 710.117493,624.969421 
	C708.418335,624.297913 706.719177,623.626404 705.013550,622.979370 
	C705.007141,623.003845 705.041382,622.966064 704.874023,622.721802 
	C704.143677,622.363281 703.580688,622.248962 702.730652,622.000977 
	C701.825500,621.849609 701.207458,621.831909 700.278320,621.551270 
	C697.319153,620.926819 694.670959,620.565369 691.624512,620.069580 
	C688.922729,619.597290 686.627686,619.181091 684.314575,618.933167 
	C648.622009,615.106689 612.786316,614.983459 577.019287,616.382874 
	C515.466187,618.791138 453.945129,622.074280 392.428101,625.321350 
	C369.490417,626.532166 346.573425,628.363220 323.697571,630.462463 
	C292.871155,633.291260 262.096893,636.686218 231.288986,639.723877 
	C228.711105,639.978027 226.047684,639.364563 223.423981,639.154236 
z"/>
<path fill="#0C071E" opacity="1.000000" stroke="none" 
	d="
M700.589355,621.814209 
	C701.207458,621.831909 701.825500,621.849609 702.914307,622.225952 
	C703.937073,622.711792 704.489258,622.838928 705.041382,622.966064 
	C705.041382,622.966064 705.007141,623.003845 705.146729,623.281128 
	C706.088196,624.439148 706.890137,625.319885 707.493469,625.982483 
	C705.136047,627.739258 703.055725,629.289551 700.975342,630.839844 
	C700.658203,630.968018 700.341064,631.096313 699.300903,631.143921 
	C692.863953,631.932556 687.140808,632.745300 681.439392,633.689819 
	C677.276062,634.379456 673.141541,635.242493 668.994141,636.028198 
	C667.365417,637.665527 665.736694,639.302856 664.107971,640.940186 
	C666.281250,642.081970 668.426514,644.150879 670.632263,644.217529 
	C686.789001,644.705688 702.330994,641.582764 717.204834,635.228760 
	C718.265442,634.775574 719.276611,634.169861 720.237488,633.525696 
	C726.832764,629.104065 726.919556,625.285828 720.832581,620.164062 
	C724.973755,619.688904 728.846680,619.497498 732.719543,619.306152 
	C734.050110,624.660034 732.624451,629.571106 729.005981,633.325073 
	C721.725769,640.878113 713.990662,647.992737 706.437012,655.281738 
	C705.839111,655.858643 705.056519,656.288513 704.588623,656.948853 
	C698.009338,666.235657 688.318970,666.672852 678.370667,666.030212 
	C671.277893,665.571960 664.190063,664.869873 657.142151,663.953247 
	C653.246521,663.446594 650.453430,661.346375 649.769348,657.000305 
	C649.554565,655.636047 648.662048,653.974670 647.554626,653.220947 
	C640.914978,648.702454 641.600220,641.729492 641.905212,635.328491 
	C642.271240,627.645569 639.962585,624.158325 632.442627,624.013245 
	C612.321411,623.625000 592.198608,623.102661 572.076233,623.094849 
	C563.073059,623.091370 554.076538,624.375549 545.063354,624.719482 
	C540.037231,624.911255 534.984497,624.278015 529.941162,624.208618 
	C527.822937,624.179382 525.702393,624.801086 523.575256,624.862366 
	C514.056824,625.136414 504.528320,625.151306 495.017609,625.575806 
	C486.101044,625.973816 477.204865,626.811157 468.294434,627.371094 
	C463.996674,627.641235 459.687378,627.736328 455.382141,627.874878 
	C453.290070,627.942200 451.176117,627.752563 449.105225,627.980408 
	C440.972839,628.875061 432.875427,630.180359 424.724426,630.792542 
	C411.903931,631.755615 399.027954,632.007324 386.216888,633.062683 
	C370.071777,634.392761 353.977234,636.325623 337.842773,637.800659 
	C330.745422,638.449524 323.593719,638.481812 316.483673,639.018860 
	C300.563110,640.221313 284.658691,641.637939 268.737183,642.826843 
	C256.748596,643.722107 244.743576,644.397705 232.746353,645.178650 
	C232.255249,645.210571 231.769348,645.320740 231.280716,645.392517 
	C224.547058,646.381409 224.547043,646.381287 223.280304,639.451050 
	C226.047684,639.364563 228.711105,639.978027 231.288986,639.723877 
	C262.096893,636.686218 292.871155,633.291260 323.697571,630.462463 
	C346.573425,628.363220 369.490417,626.532166 392.428101,625.321350 
	C453.945129,622.074280 515.466187,618.791138 577.019287,616.382874 
	C612.786316,614.983459 648.622009,615.106689 684.314575,618.933167 
	C686.627686,619.181091 688.922729,619.597290 691.838623,620.386597 
	C695.163757,621.163330 697.876587,621.488770 700.589355,621.814209 
z"/>
<path fill="#F7F3FA" opacity="1.000000" stroke="none" 
	d="
M733.068359,619.181396 
	C728.846680,619.497498 724.973755,619.688904 720.667236,619.872437 
	C713.405945,617.498291 706.578308,615.131958 699.205688,612.521057 
	C696.475281,610.129944 694.289856,607.983337 692.042542,605.483643 
	C691.264404,603.419373 690.548279,601.708191 689.832153,599.997070 
	C690.932190,596.803284 691.508911,593.286011 693.241211,590.482910 
	C696.848022,584.646790 703.006348,583.864746 709.375122,587.456848 
	C713.237854,589.635498 717.201843,592.173462 721.432617,593.059937 
	C734.427063,595.782959 746.705750,588.806519 752.906494,574.871338 
	C756.258484,567.338379 758.155151,559.157898 760.827148,550.617798 
	C760.855713,549.709717 760.765564,549.453491 760.675415,549.197205 
	C760.417175,549.430481 760.158936,549.663696 759.900696,549.896973 
	C753.423828,556.077515 746.706482,561.875366 738.019531,564.856934 
	C722.311523,570.248596 707.494263,564.496704 699.506348,549.325073 
	C702.738403,548.314148 705.612610,547.710083 708.453186,546.975952 
	C715.000610,545.284119 721.531616,543.528992 728.474243,541.888855 
	C733.356323,541.826782 738.469360,542.993896 742.160767,541.213562 
	C747.637573,538.572144 752.107544,533.842834 757.360107,530.045044 
	C758.893005,530.669189 760.319580,531.001160 761.203979,531.879211 
	C763.748230,534.404968 766.178284,537.064819 768.461365,539.830383 
	C772.405396,544.607788 783.279907,547.590576 787.884399,545.383728 
	C787.335510,548.173889 786.770813,550.589783 786.206177,553.005737 
	C782.556396,564.015076 779.841125,575.451477 775.047974,585.938232 
	C766.925476,603.709106 753.043884,615.245667 733.068359,619.181396 
z"/>
<path fill="#F7F3FA" opacity="1.000000" stroke="none" 
	d="
M676.367859,536.107361 
	C675.303162,544.670959 674.025879,553.215881 673.272644,561.806763 
	C672.946838,565.521851 670.802124,566.126587 668.005554,566.374084 
	C658.079468,567.252441 651.398987,561.032227 649.755615,548.876587 
	C646.942017,551.569275 644.407837,554.025879 641.839539,556.446350 
	C635.567810,562.357117 628.028625,565.644653 619.570496,566.710632 
	C604.121521,568.657776 589.918274,557.337280 589.215759,541.276001 
	C588.837891,532.638306 590.349609,523.716919 592.303589,515.221313 
	C596.028015,499.028229 600.808838,483.080811 604.856201,466.957336 
	C605.854370,462.981262 607.800537,461.526581 611.707947,461.433441 
	C623.129761,461.161194 630.289856,470.012665 627.428833,481.232544 
	C623.897766,495.080231 620.168335,508.878174 616.752258,522.753723 
	C616.008972,525.773193 615.940308,529.041687 616.062988,532.175842 
	C616.411804,541.085266 623.727051,545.550842 631.809326,541.756104 
	C639.390137,538.196777 643.820190,531.432861 648.191040,524.722046 
	C649.727356,522.363159 650.949768,519.799866 652.977051,517.187378 
	C657.883240,517.429260 660.040405,519.859131 661.530029,523.816406 
	C664.071472,530.567749 670.581543,533.006836 676.367859,536.107361 
z"/>
<path fill="#F7F3FA" opacity="1.000000" stroke="none" 
	d="
M898.982727,524.993958 
	C897.559082,531.634338 895.843384,538.229431 894.805664,544.929565 
	C893.996948,550.151428 893.697266,555.510498 893.800903,560.796265 
	C893.879211,564.791016 892.156738,566.147827 888.598511,566.437439 
	C879.336121,567.191406 872.342285,561.731934 871.011414,552.588013 
	C870.851257,551.487732 870.796997,550.372070 870.623535,548.510498 
	C867.561096,551.408081 865.036072,553.916382 862.384277,556.282593 
	C856.166382,561.830811 848.992676,565.540161 840.686462,566.616028 
	C827.619385,568.308533 817.734192,563.188782 810.444580,551.614746 
	C809.731384,548.750061 809.383301,546.374390 809.464844,543.998169 
	C817.234131,543.394104 824.133667,542.187744 828.998169,535.518188 
	C830.204651,533.864014 833.589600,533.798828 836.140015,533.320190 
	C839.277283,543.057068 846.159790,546.151306 854.717590,541.069702 
	C859.027649,538.510437 863.460266,535.003967 865.972107,530.808838 
	C871.289734,521.927917 875.382935,512.313843 880.330566,502.941101 
	C881.244263,502.315643 881.986023,501.843536 882.337952,501.168243 
	C884.785339,496.471863 886.834473,495.915863 890.928223,499.085815 
	C892.477722,500.285736 894.139526,501.507385 895.234436,503.078522 
	C896.237671,504.518005 896.546082,506.441772 897.200867,508.264099 
	C895.035706,508.861603 893.698181,509.230713 892.216003,509.639740 
	C892.563354,510.464386 892.624023,511.123108 892.947510,511.299225 
	C898.065247,514.085938 901.406494,517.554626 898.174133,523.836609 
	C898.073608,524.031982 898.696899,524.599792 898.982727,524.993958 
z"/>
<path fill="#06050E" opacity="1.000000" stroke="none" 
	d="
M689.408569,599.997620 
	C690.548279,601.708191 691.264404,603.419373 691.801147,605.778931 
	C688.447693,606.585876 685.272705,606.875488 682.100037,606.851746 
	C680.310974,606.838318 678.535095,606.140503 676.737183,606.040710 
	C668.998535,605.610962 661.249695,605.359375 653.512146,604.911926 
	C637.563232,603.989746 621.624512,602.881714 605.670593,602.063538 
	C599.441528,601.744141 593.180420,602.110291 586.938416,601.967285 
	C576.726868,601.733337 566.518738,601.077820 556.309448,601.082886 
	C545.608582,601.088135 534.908142,601.664490 524.207397,601.987183 
	C501.812592,602.662598 479.417999,603.344299 457.022614,603.999695 
	C453.529633,604.101929 450.011230,603.839661 446.541748,604.154785 
	C429.586609,605.694519 412.631714,607.255493 395.700989,609.039185 
	C382.073822,610.474854 368.480835,612.235168 354.873688,613.859741 
	C348.968872,614.564636 343.067963,615.302307 337.162811,616.004211 
	C323.939178,617.576111 310.681519,618.905945 297.500061,620.774048 
	C287.552490,622.183899 277.698212,624.257324 267.808685,626.069580 
	C259.371277,627.615784 250.938812,629.189758 242.511734,630.791260 
	C237.006592,631.837463 231.514969,632.954834 226.017273,634.040283 
	C225.411285,629.052185 227.681091,628.061157 232.531174,627.375854 
	C242.218124,626.007202 251.693848,623.143372 261.256439,620.895447 
	C262.369019,620.633850 263.728302,619.811523 264.551727,620.183105 
	C271.570618,623.350708 276.970734,618.966187 283.030060,616.870667 
	C287.233948,615.416870 292.004303,615.527771 296.537720,615.118958 
	C301.814880,614.643188 307.132721,614.557068 312.389130,613.933167 
	C316.221863,613.478271 319.976227,612.386719 323.781464,611.662842 
	C325.040802,611.423279 326.363129,611.529602 327.633728,611.331177 
	C331.485474,610.729675 335.336884,610.113281 339.165741,609.383850 
	C340.770111,609.078186 342.400452,607.887268 343.877563,608.096680 
	C356.079620,609.826172 367.740967,605.808350 379.680328,604.841858 
	C391.386139,603.894287 402.993469,601.767578 414.666718,600.344849 
	C416.729980,600.093384 418.928406,601.090637 421.024048,600.942017 
	C432.734619,600.111572 444.426697,599.020569 456.137299,598.190674 
	C463.853790,597.643738 471.586884,597.246033 479.319458,597.029602 
	C494.877808,596.594116 510.443359,596.414307 526.001282,595.967468 
	C541.011841,595.536377 556.021973,594.362244 571.022339,594.512207 
	C585.336121,594.655212 599.630432,596.224487 613.945740,596.905029 
	C625.792969,597.468201 637.662720,597.542297 649.514526,598.029053 
	C662.676086,598.569519 675.828552,599.332214 689.408569,599.997620 
z"/>
<path fill="#FAFAFB" opacity="1.000000" stroke="none" 
	d="
M150.219482,480.005585 
	C147.366776,490.689178 144.514069,501.372803 141.417374,512.741333 
	C140.793533,515.284424 140.413681,517.142700 140.033829,519.000916 
	C138.335861,525.066895 136.637894,531.132812 134.732727,537.883667 
	C134.256729,540.009705 133.987915,541.450867 133.719101,542.892029 
	C132.506165,549.051880 131.048096,555.177185 130.174667,561.384827 
	C129.671844,564.958435 127.803802,566.252869 124.644386,566.527161 
	C115.558121,567.316223 106.996078,560.094971 107.023178,550.832092 
	C107.038956,545.440735 108.150742,539.946167 109.495232,534.683533 
	C115.201332,512.348755 121.158806,490.077942 127.083374,467.799408 
	C127.816032,465.044342 127.921562,461.539093 132.994293,461.700317 
	C134.502472,461.517822 135.263992,461.401001 136.025528,461.284149 
	C145.904175,463.457031 150.066910,468.038818 150.397781,477.866425 
	C150.285812,479.030457 150.252655,479.518005 150.219482,480.005585 
z"/>
<path fill="#FAFAFB" opacity="1.000000" stroke="none" 
	d="
M899.182617,524.691162 
	C898.696899,524.599792 898.073608,524.031982 898.174133,523.836609 
	C901.406494,517.554626 898.065247,514.085938 892.947510,511.299225 
	C892.624023,511.123108 892.563354,510.464386 892.216003,509.639740 
	C893.698181,509.230713 895.035706,508.861603 897.200867,508.264099 
	C896.546082,506.441772 896.237671,504.518005 895.234436,503.078522 
	C894.139526,501.507385 892.477722,500.285736 890.928223,499.085815 
	C886.834473,495.915863 884.785339,496.471863 882.337952,501.168243 
	C881.986023,501.843536 881.244263,502.315643 880.312744,502.534119 
	C880.597961,499.281158 881.405762,496.400574 881.879578,493.466034 
	C883.256592,484.938416 880.897522,482.219482 872.284607,481.993561 
	C862.683838,481.741791 854.124634,484.857239 845.993164,489.688293 
	C842.109497,491.995575 838.328003,495.124878 833.217834,493.347046 
	C831.151855,490.992828 829.085938,488.638611 826.839905,485.656433 
	C826.430786,484.352081 826.201782,483.675690 825.972717,482.999329 
	C826.609741,480.922668 827.246704,478.845978 828.261963,476.271484 
	C833.818604,472.705536 838.997070,469.637451 844.175537,466.569366 
	C856.580811,462.160797 869.254272,459.933014 882.430298,461.949677 
	C889.431458,463.021210 896.008850,465.113190 901.530701,469.837189 
	C910.255493,477.301300 912.011292,484.328217 907.255676,494.633331 
	C905.974487,497.409607 904.724304,499.936035 904.234131,503.134644 
	C903.136169,510.298767 901.060181,517.313049 899.182617,524.691162 
z"/>
<path fill="#09090C" opacity="1.000000" stroke="none" 
	d="
M177.100250,492.017517 
	C182.525040,495.173187 187.223480,492.886627 191.863922,489.928131 
	C200.344315,484.521484 209.526855,481.594086 219.679184,482.063477 
	C227.024109,482.403107 229.277603,484.905518 228.187500,492.129547 
	C225.943146,507.002899 220.955841,520.850037 211.053909,532.367371 
	C207.683044,536.288208 203.380066,539.962463 198.745056,542.124451 
	C189.502350,546.435608 180.832748,540.220032 182.365952,530.187683 
	C183.363876,523.658020 186.541595,517.402283 189.176666,511.208435 
	C190.387863,508.361450 192.715637,506.005127 194.403366,503.341583 
	C196.842041,499.492950 195.683914,495.480957 191.211456,495.168823 
	C186.138107,494.814728 180.937881,496.278564 175.414825,497.024841 
	C175.711014,495.532318 176.385178,493.967010 177.100250,492.017517 
z"/>
<path fill="#09090C" opacity="1.000000" stroke="none" 
	d="
M833.148071,493.741394 
	C838.328003,495.124878 842.109497,491.995575 845.993164,489.688293 
	C854.124634,484.857239 862.683838,481.741791 872.284607,481.993561 
	C880.897522,482.219482 883.256592,484.938416 881.879578,493.466034 
	C881.405762,496.400574 880.597961,499.281158 879.960449,502.593414 
	C875.382935,512.313843 871.289734,521.927917 865.972107,530.808838 
	C863.460266,535.003967 859.027649,538.510437 854.717590,541.069702 
	C846.159790,546.151306 839.277283,543.057068 836.217041,532.897156 
	C837.350647,527.032776 837.983704,521.665466 839.963379,516.851990 
	C841.949585,512.022827 845.359375,507.792419 847.995850,503.213593 
	C850.586426,498.714691 849.033997,495.272766 843.892090,494.729492 
	C840.307800,494.350830 836.632324,494.834320 832.997620,494.932678 
	C833.024475,494.667023 833.051392,494.401398 833.148071,493.741394 
z"/>
<path fill="#ECDEFA" opacity="1.000000" stroke="none" 
	d="
M676.584961,535.815552 
	C670.581543,533.006836 664.071472,530.567749 661.530029,523.816406 
	C660.040405,519.859131 657.883240,517.429260 653.250854,516.990479 
	C657.980225,500.505981 663.321106,484.140198 668.075562,467.605804 
	C669.473633,462.743683 671.872986,461.267853 676.510742,461.534973 
	C686.871887,462.131775 693.707031,470.629425 691.179932,480.667419 
	C686.565308,498.997650 681.613342,517.242981 676.584961,535.815552 
z"/>
<path fill="#140831" opacity="1.000000" stroke="none" 
	d="
M225.837769,634.290039 
	C231.514969,632.954834 237.006592,631.837463 242.511734,630.791260 
	C250.938812,629.189758 259.371277,627.615784 267.808685,626.069580 
	C277.698212,624.257324 287.552490,622.183899 297.500061,620.774048 
	C310.681519,618.905945 323.939178,617.576111 337.162811,616.004211 
	C343.067963,615.302307 348.968872,614.564636 354.873688,613.859741 
	C368.480835,612.235168 382.073822,610.474854 395.700989,609.039185 
	C412.631714,607.255493 429.586609,605.694519 446.541748,604.154785 
	C450.011230,603.839661 453.529633,604.101929 457.022614,603.999695 
	C479.417999,603.344299 501.812592,602.662598 524.207397,601.987183 
	C534.908142,601.664490 545.608582,601.088135 556.309448,601.082886 
	C566.518738,601.077820 576.726868,601.733337 586.938416,601.967285 
	C593.180420,602.110291 599.441528,601.744141 605.670593,602.063538 
	C621.624512,602.881714 637.563232,603.989746 653.512146,604.911926 
	C661.249695,605.359375 668.998535,605.610962 676.737183,606.040710 
	C678.535095,606.140503 680.310974,606.838318 682.100037,606.851746 
	C685.272705,606.875488 688.447693,606.585876 691.863098,606.132019 
	C694.289856,607.983337 696.475281,610.129944 698.820435,612.550232 
	C675.502258,610.248108 652.082703,606.644653 628.534363,605.303589 
	C574.277954,602.213623 519.971497,602.899231 465.716644,606.099182 
	C416.336334,609.011780 367.083557,613.381287 318.158966,620.786682 
	C288.879547,625.218506 259.707489,630.360901 230.495407,635.233093 
	C228.540451,635.559204 226.655106,636.302551 224.352386,636.891235 
	C224.531006,636.133667 225.094635,635.336792 225.837769,634.290039 
z"/>
<path fill="#F0E7FA" opacity="1.000000" stroke="none" 
	d="
M832.729126,495.118042 
	C836.632324,494.834320 840.307800,494.350830 843.892090,494.729492 
	C849.033997,495.272766 850.586426,498.714691 847.995850,503.213593 
	C845.359375,507.792419 841.949585,512.022827 839.963379,516.851990 
	C837.983704,521.665466 837.350647,527.032776 836.050171,532.580200 
	C833.589600,533.798828 830.204651,533.864014 828.998169,535.518188 
	C824.133667,542.187744 817.234131,543.394104 809.311584,543.611206 
	C806.589722,535.510193 809.656250,528.383667 811.228943,521.088379 
	C811.791748,519.937012 812.354614,518.785706 813.158203,517.090088 
	C814.153381,515.026489 814.907776,513.507202 815.662231,511.987854 
	C816.123718,511.312042 816.585205,510.636200 817.388306,509.476746 
	C820.977295,505.301727 824.224609,501.610321 827.471985,497.918915 
	C827.471985,497.918915 827.762817,497.794281 828.090088,497.563416 
	C828.945496,496.889862 829.473572,496.447205 830.001709,496.004517 
	C830.821350,495.770782 831.641052,495.537079 832.729126,495.118042 
z"/>
<path fill="#E5CEFB" opacity="1.000000" stroke="none" 
	d="
M804.770569,482.975372 
	C804.805115,483.146149 804.839661,483.316925 804.706299,484.031708 
	C803.739319,487.718384 802.940308,490.861053 802.141235,494.003723 
	C801.698547,495.406982 801.255920,496.810242 800.591064,498.852539 
	C797.655701,509.021545 794.942444,518.551453 791.826904,528.052917 
	C789.440735,527.348755 787.502136,526.316711 785.465454,526.059143 
	C776.616577,524.939819 771.754456,519.427185 768.904724,511.212708 
	C770.713745,504.905579 772.490601,498.952209 774.604248,492.897919 
	C776.046204,490.923615 776.998657,488.937500 778.282959,487.196167 
	C784.190063,479.186584 792.796021,479.508911 801.339111,480.135895 
	C802.545898,480.224426 803.629822,481.987427 804.770569,482.975372 
z"/>
<path fill="#E5CEFB" opacity="1.000000" stroke="none" 
	d="
M695.265747,530.005188 
	C695.248291,528.914429 695.230774,527.823730 695.651245,526.261597 
	C696.068115,524.862061 696.047119,523.933960 696.026123,523.005859 
	C697.382568,510.333344 702.978271,499.441010 710.933411,489.105499 
	C714.124817,489.664062 717.295959,489.620087 718.917358,491.183472 
	C722.995789,495.115875 726.374573,499.773956 730.010132,504.496765 
	C727.515198,511.618134 725.044128,518.383850 722.211609,525.290283 
	C720.877319,526.599548 720.129272,528.199463 718.885254,528.847778 
	C716.218201,530.237671 713.139282,530.855225 710.517578,532.309387 
	C707.451477,534.010132 704.779785,534.254517 701.683411,532.417480 
	C699.748291,531.269348 697.418457,530.786560 695.265747,530.005188 
z"/>
<path fill="#FAFAFB" opacity="1.000000" stroke="none" 
	d="
M446.000519,533.740356 
	C454.134979,540.073547 455.814026,547.943665 451.119110,556.287842 
	C446.308319,564.838013 436.615967,568.960571 428.293549,565.753052 
	C422.903534,563.675720 419.733978,559.530762 418.980042,553.802795 
	C416.992950,538.705933 431.176636,527.986633 446.000519,533.740356 
z"/>
<path fill="#F7F3FA" opacity="1.000000" stroke="none" 
	d="
M724.611572,474.794434 
	C742.002014,461.415344 761.346863,458.114594 782.496155,464.070312 
	C778.941406,467.347351 774.851257,469.742859 771.770020,473.072113 
	C769.505615,475.518829 768.562317,479.188263 766.585693,482.325500 
	C755.202393,481.160034 746.756775,486.233276 738.910339,492.819275 
	C735.120239,485.741547 730.360474,479.872223 724.611572,474.794434 
z"/>
<path fill="#FAFAFB" opacity="1.000000" stroke="none" 
	d="
M135.573837,447.760345 
	C126.658325,436.535187 136.339096,421.821899 146.906982,419.815857 
	C152.894302,418.679321 158.156464,419.768585 162.052170,424.817719 
	C165.899353,429.803864 166.400803,435.558350 163.326477,440.685486 
	C160.969894,444.615601 156.929398,447.535980 152.912933,451.104645 
	C145.923401,453.529297 140.405502,452.253601 135.573837,447.760345 
z"/>
<path fill="#09090C" opacity="1.000000" stroke="none" 
	d="
M792.229248,528.081421 
	C794.942444,518.551453 797.655701,509.021545 800.617859,499.223145 
	C801.553406,505.089020 802.785828,511.225037 802.767395,517.357239 
	C802.750244,523.050964 802.370422,523.189575 807.962402,521.220764 
	C808.711914,520.956909 809.602417,521.093201 810.828247,521.066284 
	C809.656250,528.383667 806.589722,535.510193 808.881958,543.611755 
	C809.383301,546.374390 809.731384,548.750061 810.114868,551.531616 
	C806.061035,554.017029 805.302002,550.680603 805.188660,548.246765 
	C805.015991,544.535767 803.963074,542.804749 799.969666,542.817749 
	C798.475586,542.822632 796.976013,541.157166 794.859924,539.879578 
	C793.248108,542.948853 788.330017,544.126526 791.492981,549.881470 
	C793.173157,552.938538 789.196899,552.824036 786.600037,553.005737 
	C786.770813,550.589783 787.335510,548.173889 788.064209,545.035767 
	C789.561951,538.902771 790.895569,533.492126 792.229248,528.081421 
z"/>
<path fill="#ECDEFA" opacity="1.000000" stroke="none" 
	d="
M767.030273,482.312775 
	C768.562317,479.188263 769.505615,475.518829 771.770020,473.072113 
	C774.851257,469.742859 778.941406,467.347351 782.795898,464.286652 
	C791.172729,465.720978 797.925476,470.041595 803.568054,475.961487 
	C804.842346,477.298431 804.616333,480.065521 804.925781,482.574799 
	C803.629822,481.987427 802.545898,480.224426 801.339111,480.135895 
	C792.796021,479.508911 784.190063,479.186584 778.282959,487.196167 
	C776.998657,488.937500 776.046204,490.923615 774.542725,492.563049 
	C774.764893,486.865356 771.814209,483.938049 767.030273,482.312775 
z"/>
<path fill="#F0E7FA" opacity="1.000000" stroke="none" 
	d="
M695.178955,530.441772 
	C697.418457,530.786560 699.748291,531.269348 701.683411,532.417480 
	C704.779785,534.254517 707.451477,534.010132 710.517578,532.309387 
	C713.139282,530.855225 716.218201,530.237671 718.885254,528.847778 
	C720.129272,528.199463 720.877319,526.599548 722.240723,525.705566 
	C721.777832,532.169800 723.371643,537.518127 728.069275,541.799500 
	C721.531616,543.528992 715.000610,545.284119 708.453186,546.975952 
	C705.612610,547.710083 702.738403,548.314148 699.490845,548.976807 
	C697.765564,542.943665 696.428894,536.911011 695.178955,530.441772 
z"/>
<path fill="#F0E7FA" opacity="1.000000" stroke="none" 
	d="
M724.403503,474.805054 
	C730.360474,479.872223 735.120239,485.741547 738.796570,493.130188 
	C735.889038,497.224609 732.961426,500.682861 730.033875,504.141113 
	C726.374573,499.773956 722.995789,495.115875 718.917358,491.183472 
	C717.295959,489.620087 714.124817,489.664062 711.231323,488.959076 
	C715.267456,484.233124 719.731445,479.524414 724.403503,474.805054 
z"/>
<path fill="#09090C" opacity="1.000000" stroke="none" 
	d="
M245.525116,528.003174 
	C245.993484,524.552612 246.835632,521.101257 247.870132,517.324585 
	C250.375839,516.150024 253.780426,515.969421 254.790421,514.321350 
	C257.430237,510.013702 260.076050,509.758514 263.868378,512.345581 
	C264.618530,512.857422 265.725769,512.845764 267.074341,513.120605 
	C266.288147,517.807129 265.096008,522.448486 263.712036,527.427917 
	C262.091034,527.215088 260.684143,526.285461 259.227631,526.199707 
	C256.894379,526.062500 254.528198,526.484558 252.085114,525.559509 
	C250.023056,526.373779 247.960999,527.188049 245.525116,528.003174 
z"/>
<path fill="#09090C" opacity="1.000000" stroke="none" 
	d="
M203.200562,560.942505 
	C207.374619,556.975769 211.957443,553.033325 216.636887,549.007690 
	C219.128571,563.556763 227.367981,569.483337 239.178497,564.990479 
	C239.278610,566.026367 239.199463,568.287537 238.772385,568.355286 
	C234.978699,568.957092 230.699020,570.374939 227.388641,569.208374 
	C222.760422,567.577393 218.971344,563.698364 214.558121,561.261230 
	C212.686768,560.227783 210.151672,560.221130 207.900772,560.113831 
	C206.487061,560.046387 205.040924,560.659119 203.200562,560.942505 
z"/>
<path fill="#09090C" opacity="1.000000" stroke="none" 
	d="
M135.201447,447.924469 
	C140.405502,452.253601 145.923401,453.529297 152.597412,451.264099 
	C153.006775,452.864502 153.006775,454.504669 153.006775,456.644348 
	C151.216675,456.740845 149.788330,456.958557 148.380585,456.865204 
	C145.209686,456.654999 141.997864,456.538391 138.902740,455.899200 
	C136.951645,455.496246 134.586304,454.640930 133.546021,453.178253 
	C132.888397,452.253601 134.329361,449.836365 135.201447,447.924469 
z"/>
<path fill="#09090C" opacity="1.000000" stroke="none" 
	d="
M251.472778,506.001312 
	C252.521591,500.183411 253.977768,494.365082 255.667450,488.258179 
	C258.558502,491.026733 259.106781,502.250366 256.415466,504.667847 
	C255.357880,505.617828 253.418167,505.585754 251.472778,506.001312 
z"/>
<path fill="#09090C" opacity="1.000000" stroke="none" 
	d="
M827.136597,497.671478 
	C824.224609,501.610321 820.977295,505.301727 817.432983,509.170959 
	C815.916260,504.780853 816.353394,502.663361 820.509888,492.804901 
	C822.587524,494.330322 824.694397,495.877167 827.136597,497.671478 
z"/>
<path fill="#09090C" opacity="1.000000" stroke="none" 
	d="
M843.975464,466.214600 
	C838.997070,469.637451 833.818604,472.705536 828.334839,475.921265 
	C827.628479,467.434479 835.288025,464.805664 843.975464,466.214600 
z"/>
<path fill="#09090C" opacity="1.000000" stroke="none" 
	d="
M254.065857,475.844971 
	C250.708237,473.349731 247.507309,470.492462 244.145813,467.340881 
	C247.042831,467.434631 250.519913,467.091309 252.988205,468.506866 
	C254.301315,469.260010 253.867706,473.058838 254.065857,475.844971 
z"/>
<path fill="#09090C" opacity="1.000000" stroke="none" 
	d="
M179.044296,567.351807 
	C183.411560,566.421753 187.822800,565.856384 192.621429,565.280396 
	C192.718842,571.111084 187.599380,569.668274 184.394211,570.482361 
	C182.952774,570.848572 180.876511,568.715515 179.044296,567.351807 
z"/>
<path fill="#09090C" opacity="1.000000" stroke="none" 
	d="
M802.488281,493.953308 
	C802.940308,490.861053 803.739319,487.718384 804.764160,484.286560 
	C808.027771,486.752350 807.341614,489.906769 802.488281,493.953308 
z"/>
<path fill="#09090C" opacity="1.000000" stroke="none" 
	d="
M278.215088,471.067566 
	C278.268250,472.632294 277.975525,474.050385 277.433105,475.731964 
	C276.156250,475.136566 274.452850,474.412354 274.249237,473.389526 
	C273.878296,471.526276 274.397095,469.485901 274.584015,466.995026 
	C275.924957,468.597504 276.897064,469.759216 278.215088,471.067566 
z"/>
<path fill="#09090C" opacity="1.000000" stroke="none" 
	d="
M240.593994,556.001709 
	C240.179474,554.199158 240.163635,552.393311 240.284103,550.229553 
	C241.604584,550.822083 242.788773,551.772522 243.972931,552.722900 
	C242.979507,553.814697 241.986084,554.906494 240.593994,556.001709 
z"/>
<path fill="#09090C" opacity="1.000000" stroke="none" 
	d="
M815.298401,511.988464 
	C814.907776,513.507202 814.153381,515.026489 813.164062,516.763184 
	C810.117065,513.718506 810.438965,512.917236 815.298401,511.988464 
z"/>
<path fill="#09090C" opacity="1.000000" stroke="none" 
	d="
M134.086273,542.890991 
	C133.987915,541.450867 134.256729,540.009705 134.753510,538.281982 
	C135.861664,538.413818 136.741882,538.832275 137.622101,539.250671 
	C136.565887,540.463806 135.509674,541.676941 134.086273,542.890991 
z"/>
<path fill="#09090C" opacity="1.000000" stroke="none" 
	d="
M190.815216,465.820801 
	C188.948730,467.099640 186.863098,468.103149 184.419556,469.134888 
	C184.720947,465.213745 187.670334,465.400970 190.815216,465.820801 
z"/>
<path fill="#09090C" opacity="1.000000" stroke="none" 
	d="
M140.427719,518.985229 
	C140.413681,517.142700 140.793533,515.284424 141.385162,513.144165 
	C143.621384,515.187744 144.269928,517.338684 140.427719,518.985229 
z"/>
<path fill="#09090C" opacity="1.000000" stroke="none" 
	d="
M258.713989,557.154785 
	C259.897034,558.246338 260.770630,559.500305 261.765106,561.059753 
	C260.577759,561.145630 259.095734,561.207764 258.049957,560.562683 
	C257.652191,560.317322 258.256836,558.446899 258.713989,557.154785 
z"/>
<path fill="#09090C" opacity="1.000000" stroke="none" 
	d="
M136.016266,460.946899 
	C135.263992,461.401001 134.502472,461.517822 133.360397,461.549866 
	C133.428238,460.372559 133.876617,459.280029 134.325012,458.187531 
	C134.885681,458.994873 135.446350,459.802246 136.016266,460.946899 
z"/>
<path fill="#09090C" opacity="1.000000" stroke="none" 
	d="
M825.574463,483.001831 
	C826.201782,483.675690 826.430786,484.352081 826.667236,485.386353 
	C825.281250,485.744263 823.887878,485.744263 822.494507,485.744263 
	C822.360107,485.281403 822.225708,484.818573 822.091309,484.355713 
	C823.119629,483.905243 824.147888,483.454773 825.574463,483.001831 
z"/>
<path fill="#09090C" opacity="1.000000" stroke="none" 
	d="
M271.495178,496.997620 
	C271.803192,497.564148 271.743744,498.131927 271.459595,498.884979 
	C269.996704,499.226135 268.758514,499.382080 267.520355,499.537994 
	C267.412262,499.155426 267.304169,498.772827 267.196106,498.390228 
	C268.506622,497.926483 269.817169,497.462708 271.495178,496.997620 
z"/>
<path fill="#09090C" opacity="1.000000" stroke="none" 
	d="
M243.122955,537.893921 
	C242.896164,536.750366 243.045776,535.598267 243.409119,534.169861 
	C244.344559,534.541016 245.066269,535.188599 245.787979,535.836121 
	C245.025101,536.519226 244.262238,537.202332 243.122955,537.893921 
z"/>
<path fill="#09090C" opacity="1.000000" stroke="none" 
	d="
M829.766846,495.742981 
	C829.473572,496.447205 828.945496,496.889862 828.174133,497.429382 
	C827.884277,496.841125 827.837646,496.156097 827.791016,495.471039 
	C828.371338,495.474518 828.951721,495.477966 829.766846,495.742981 
z"/>
<path fill="#09090C" opacity="1.000000" stroke="none" 
	d="
M170.906738,500.097992 
	C170.447418,501.090820 169.582596,502.058990 168.412842,503.148102 
	C168.905701,502.203796 169.703476,501.138580 170.906738,500.097992 
z"/>
<path fill="#09090C" opacity="1.000000" stroke="none" 
	d="
M153.659958,539.057800 
	C154.121964,539.734192 154.247269,540.468445 154.280472,541.566528 
	C151.914322,541.602417 151.372177,540.742188 153.659958,539.057800 
z"/>
<path fill="#F0E7FA" opacity="1.000000" stroke="none" 
	d="
M695.892334,523.283447 
	C696.047119,523.933960 696.068115,524.862061 695.815247,525.883850 
	C695.613770,525.172058 695.686157,524.366577 695.892334,523.283447 
z"/>
<path fill="#09090C" opacity="1.000000" stroke="none" 
	d="
M150.471832,479.973755 
	C150.252655,479.518005 150.285812,479.030457 150.564758,478.264893 
	C150.781754,478.638580 150.752960,479.290222 150.471832,479.973755 
z"/>
<path fill="#09090C" opacity="1.000000" stroke="none" 
	d="
M257.812988,554.141846 
	C258.148346,554.093567 258.319122,554.183777 258.497284,554.563599 
	C258.219269,554.662231 257.933807,554.471313 257.812988,554.141846 
z"/>
<path fill="#06050E" opacity="1.000000" stroke="none" 
	d="
M514.818115,486.966248 
	C513.085022,487.062286 511.788635,487.124451 509.752258,487.222137 
	C510.555756,484.235657 511.197479,481.746826 511.895416,479.273865 
	C515.146545,467.754364 518.404175,456.236725 521.677673,444.723572 
	C523.825562,437.169373 523.657776,435.974030 518.600708,428.232086 
	C529.346497,427.001221 539.476257,425.502594 549.660889,424.806152 
	C555.410339,424.412964 561.373413,424.704041 567.024353,425.800018 
	C580.092468,428.334534 584.128418,437.713898 577.870667,449.658997 
	C572.003296,460.859009 562.624207,468.390778 551.909851,474.480103 
	C540.499695,480.964905 528.096191,484.614807 514.818115,486.966248 
z"/>
<path fill="#140831" opacity="1.000000" stroke="none" 
	d="
M669.429932,636.046997 
	C673.141541,635.242493 677.276062,634.379456 681.439392,633.689819 
	C687.140808,632.745300 692.863953,631.932556 699.044067,631.113159 
	C689.628845,632.797241 679.747314,634.431519 669.429932,636.046997 
z"/>
<path fill="#140831" opacity="1.000000" stroke="none" 
	d="
M701.344238,630.864380 
	C703.055725,629.289551 705.136047,627.739258 707.493469,625.982483 
	C706.890137,625.319885 706.088196,624.439148 705.153137,623.256592 
	C706.719177,623.626404 708.418335,624.297913 710.117493,624.969421 
	C710.206604,625.565002 710.295715,626.160645 710.384827,626.756226 
	C707.494263,628.133728 704.603699,629.511292 701.344238,630.864380 
z"/>
<path fill="#140831" opacity="1.000000" stroke="none" 
	d="
M700.278320,621.551270 
	C697.876587,621.488770 695.163757,621.163330 692.236877,620.520935 
	C694.670959,620.565369 697.319153,620.926819 700.278320,621.551270 
z"/>
<path fill="#140831" opacity="1.000000" stroke="none" 
	d="
M704.874023,622.721802 
	C704.489258,622.838928 703.937073,622.711792 703.201294,622.359680 
	C703.580688,622.248962 704.143677,622.363281 704.874023,622.721802 
z"/>
<path fill="#09090C" opacity="1.000000" stroke="none" 
	d="
M730.010132,504.496765 
	C732.961426,500.682861 735.889038,497.224609 738.930420,493.455444 
	C746.756775,486.233276 755.202393,481.160034 766.585693,482.325500 
	C771.814209,483.938049 774.764893,486.865356 774.205933,492.663971 
	C772.490601,498.952209 770.713745,504.905579 768.602051,511.416260 
	C764.513489,517.983154 760.759827,523.992737 757.006104,530.002319 
	C752.107544,533.842834 747.637573,538.572144 742.160767,541.213562 
	C738.469360,542.993896 733.356323,541.826782 728.474243,541.888855 
	C723.371643,537.518127 721.777832,532.169800 722.602173,525.564941 
	C725.044128,518.383850 727.515198,511.618134 730.010132,504.496765 
z"/>
<path fill="#ECDEFA" opacity="1.000000" stroke="none" 
	d="
M757.360107,530.045044 
	C760.759827,523.992737 764.513489,517.983154 768.569885,511.770020 
	C771.754456,519.427185 776.616577,524.939819 785.465454,526.059143 
	C787.502136,526.316711 789.440735,527.348755 791.826843,528.052917 
	C790.895569,533.492126 789.561951,538.902771 788.048401,544.661499 
	C783.279907,547.590576 772.405396,544.607788 768.461365,539.830383 
	C766.178284,537.064819 763.748230,534.404968 761.203979,531.879211 
	C760.319580,531.001160 758.893005,530.669189 757.360107,530.045044 
z"/>
<path fill="#040407" opacity="1.000000" stroke="none" 
	d="
M760.096680,550.057251 
	C760.158936,549.663696 760.417175,549.430481 760.675415,549.197205 
	C760.765564,549.453491 760.855713,549.709717 760.838501,550.218384 
	C760.584961,550.386292 760.438782,550.301941 760.096680,550.057251 
z"/>
</svg>